<svg id="Lager_1" data-name="Lager 1" xmlns="http://www.w3.org/2000/svg" viewBox="0 0 78.88 39.91"><defs><style>.cls-1{fill:#f9f9f9;}</style></defs><rect class="cls-1" x="14.12" width="23.44" height="6.61"/><rect class="cls-1" x="14.12" y="8.42" width="23.44" height="6.61"/><rect class="cls-1" x="14.12" y="16.83" width="23.44" height="6.61"/><rect class="cls-1" x="47.86" y="8.42" width="23.44" height="6.61" transform="translate(71.3 -47.86) rotate(90)"/><rect class="cls-1" x="39.44" y="8.42" width="23.44" height="6.61" transform="translate(62.88 -39.44) rotate(90)"/><rect class="cls-1" x="31.03" y="8.42" width="23.44" height="6.61" transform="translate(54.47 -31.03) rotate(90)"/><path class="cls-1" d="M3.65,33.8v.83H1.07v1.69h2.2v.83H1.07v1.93H3.79v.83H0V33.8Z"/><path class="cls-1" d="M9,33.8a2.71,2.71,0,0,1,1.43.26,1.34,1.34,0,0,1,.67,1.25A1.26,1.26,0,0,1,10,36.65a1.48,1.48,0,0,1,1.43,1.51,1.56,1.56,0,0,1-.77,1.41A3,3,0,0,1,9,39.91H7V33.8Zm-.89,2.52h.75a1.46,1.46,0,0,0,.73-.13.78.78,0,0,0,.39-.73.81.81,0,0,0-.39-.75,1.46,1.46,0,0,0-.73-.13H8.06Zm0,2.81h.88A1.74,1.74,0,0,0,9.85,39a1,1,0,0,0,0-1.62,1.74,1.74,0,0,0-.91-.18H8.06Z"/><path class="cls-1" d="M16.51,33.8a2.74,2.74,0,0,1,1.43.26,1.34,1.34,0,0,1,.67,1.25,1.26,1.26,0,0,1-1.07,1.34A1.48,1.48,0,0,1,19,38.16a1.56,1.56,0,0,1-.77,1.41,3,3,0,0,1-1.65.34h-2V33.8Zm-.89,2.52h.75a1.46,1.46,0,0,0,.73-.13.78.78,0,0,0,.39-.73.81.81,0,0,0-.39-.75,1.46,1.46,0,0,0-.73-.13h-.75Zm0,2.81h.88a1.74,1.74,0,0,0,.91-.18,1,1,0,0,0,0-1.62,1.74,1.74,0,0,0-.91-.18h-.88Z"/><path class="cls-1" d="M25.76,39.91l-.51-1.52H22.92l-.52,1.52h-1l2.21-6.11h1.13l2.18,6.11ZM23.2,37.57H25l-.88-2.63Z"/><path class="cls-1" d="M35.09,33.8l1.2,4.75L37.53,34h1.09l1.23,4.6,1.2-4.75h1l-1.68,6.11h-1.1L38,35.27l-1.25,4.64H35.61L33.94,33.8Z"/><path class="cls-1" d="M47.23,32.16a1,1,0,0,1,1.14,1,.86.86,0,0,1-.45.8L50,39.91H48.86l-.51-1.52H46l-.52,1.52h-1L46.63,34a.85.85,0,0,1-.53-.83A1,1,0,0,1,47.23,32.16Zm-.93,5.41h1.78l-.88-2.63Zm.93-3.86a.46.46,0,0,0,.48-.48.45.45,0,0,0-.48-.48.46.46,0,0,0-.48.48A.46.46,0,0,0,47.23,33.71Z"/><path class="cls-1" d="M54.39,33.8v2.52h2.69V33.8h1.09v6.11H57.08V37.15H54.39v2.76H53.3V33.8Z"/><path class="cls-1" d="M63.2,33.8v5.27h2.42v.84H62.11V33.8Z"/><path class="cls-1" d="M70,33.8v6.11H68.92V33.8Z"/><path class="cls-1" d="M75,33.8l2.92,4.34V33.8h1v6.11h-1l-3-4.42v4.42h-1V33.8Z"/></svg>